<svg width="29" height="29" viewBox="0 0 29 29" fill="none" xmlns="http://www.w3.org/2000/svg">
<g clip-path="url(#clip0_22_44)">
<path fill-rule="evenodd" clip-rule="evenodd" d="M14.5001 17.0641L20.9078 23.4719C21.2479 23.8119 21.709 24.0029 22.1899 24.0029C22.6707 24.0029 23.1319 23.8119 23.4719 23.4719C23.8119 23.1319 24.003 22.6707 24.003 22.1898C24.003 21.709 23.8119 21.2478 23.4719 20.9078L17.0617 14.5L23.4707 8.09222C23.639 7.92386 23.7725 7.724 23.8635 7.50406C23.9546 7.28412 24.0014 7.0484 24.0013 6.81035C24.0013 6.57231 23.9543 6.33661 23.8632 6.11671C23.772 5.89681 23.6385 5.69702 23.4701 5.52874C23.3018 5.36046 23.1019 5.22699 22.882 5.13595C22.662 5.0449 22.4263 4.99807 22.1882 4.99813C21.9502 4.99818 21.7145 5.04513 21.4946 5.13627C21.2747 5.22742 21.0749 5.36098 20.9066 5.52934L14.5001 11.9371L8.09226 5.52934C7.92514 5.35616 7.72521 5.21798 7.50412 5.12289C7.28303 5.02779 7.04522 4.97768 6.80456 4.97548C6.5639 4.97327 6.32521 5.01902 6.10242 5.11005C5.87963 5.20108 5.6772 5.33557 5.50694 5.50567C5.33668 5.67577 5.202 5.87807 5.11076 6.10078C5.01952 6.32348 4.97355 6.56213 4.97553 6.80279C4.9775 7.04345 5.02739 7.28131 5.12227 7.50249C5.21716 7.72367 5.35514 7.92373 5.52818 8.09101L11.9384 14.5L5.52938 20.909C5.35635 21.0763 5.21837 21.2764 5.12348 21.4975C5.0286 21.7187 4.97871 21.9566 4.97673 22.1972C4.97476 22.4379 5.02073 22.6765 5.11197 22.8992C5.20321 23.122 5.33789 23.3243 5.50815 23.4944C5.67841 23.6645 5.88084 23.7989 6.10363 23.89C6.32642 23.981 6.56511 24.0267 6.80577 24.0245C7.04643 24.0223 7.28424 23.9722 7.50533 23.8771C7.72642 23.782 7.92635 23.6439 8.09347 23.4707L14.5001 17.0641Z" fill="white"/>
</g>
<defs>
<clipPath id="clip0_22_44">
<rect width="29" height="29" fill="white"/>
</clipPath>
</defs>
</svg>
