<svg width="52" height="52" viewBox="0 0 52 52" fill="none" xmlns="http://www.w3.org/2000/svg">
<path d="M9.75 5.19995C9.53451 5.19995 9.32785 5.28555 9.17548 5.43793C9.0231 5.5903 8.9375 5.79696 8.9375 6.01245V37.0499C8.9375 37.3424 9.0935 37.6089 9.34375 37.7552L25.1355 46.8617C25.2562 46.9315 25.3929 46.9691 25.5323 46.9708C25.6718 46.9725 25.8094 46.9383 25.9318 46.8714L42.64 37.7162C42.7682 37.646 42.8751 37.5426 42.9495 37.4168C43.0239 37.2909 43.0629 37.1474 43.0625 37.0012V6.01245C43.0625 5.79696 42.9769 5.5903 42.8245 5.43793C42.6722 5.28555 42.4655 5.19995 42.25 5.19995H9.75ZM4.0625 6.01245C4.0625 2.87295 6.6105 0.324951 9.75 0.324951H42.25C45.3895 0.324951 47.9375 2.87295 47.9375 6.01245V37.0044C47.9371 38.0239 47.6627 39.0246 47.143 39.9017C46.6232 40.7788 45.8773 41.5 44.9832 41.99L28.275 51.1484C27.4181 51.6175 26.4548 51.8579 25.478 51.8465C24.5012 51.8351 23.5438 51.5723 22.698 51.0835L6.9095 41.977C6.04407 41.4781 5.3253 40.76 4.82552 39.8951C4.32574 39.0302 4.06257 38.0489 4.0625 37.0499V6.01245ZM16.25 14.1375C16.25 13.491 16.5068 12.871 16.9639 12.4139C17.421 11.9568 18.041 11.7 18.6875 11.7H33.6862C34.3327 11.7 34.9527 11.9568 35.4098 12.4139C35.8669 12.871 36.1237 13.491 36.1237 14.1375V33.9495C36.124 34.402 35.9983 34.8457 35.7607 35.2309C35.523 35.6161 35.1829 35.9274 34.7783 36.1302L27.2772 39.8807C26.9391 40.0495 26.5664 40.1374 26.1885 40.1374C25.8106 40.1374 25.4379 40.0495 25.0998 39.8807L17.5988 36.1302C17.194 35.9281 16.8535 35.6175 16.6153 35.2329C16.3771 34.8483 16.2506 34.4051 16.25 33.9527V32.0742C16.25 31.4277 16.5068 30.8077 16.9639 30.3506C17.421 29.8935 18.041 29.6367 18.6875 29.6367C19.334 29.6367 19.954 29.8935 20.4111 30.3506C20.8682 30.8077 21.125 31.4277 21.125 32.0742V32.4447L26.1885 34.9732L31.2487 32.4447V27.014H22.75C22.1035 27.014 21.4835 26.7571 21.0264 26.3C20.5693 25.8429 20.3125 25.2229 20.3125 24.5765C20.3125 23.93 20.5693 23.31 21.0264 22.8529C21.4835 22.3958 22.1035 22.139 22.75 22.139H31.2487V16.575H18.6875C18.041 16.575 17.421 16.3181 16.9639 15.861C16.5068 15.4039 16.25 14.7839 16.25 14.1375Z" fill="white"/>
</svg>
