<svg width="30" height="32" viewBox="0 0 30 32" fill="none" xmlns="http://www.w3.org/2000/svg">
<g clip-path="url(#clip0_16_153)">
<path d="M20.605 15.9679L28.2938 8.84259V23.0119L20.605 15.9679ZM10.6975 17.1746L13.3975 19.6746C13.8213 20.0586 14.3738 20.2906 14.9775 20.2906H14.9987H15.015C15.62 20.2906 16.1725 20.0573 16.6012 19.6706L16.5975 19.6733L19.2975 17.1733L27.505 24.6919H2.49375L10.6975 17.1746ZM2.4825 7.15325H27.52L15.4938 18.2946C15.3585 18.4087 15.1912 18.4707 15.0188 18.4706H15.0013H14.985C14.812 18.4708 14.644 18.4083 14.5088 18.2933L14.51 18.2946L2.4825 7.15325ZM1.70625 8.84125L9.39375 15.9666L1.70625 23.0066V8.84125ZM28.7062 5.58659C28.4062 5.42659 28.0537 5.33325 27.68 5.33325H2.32375C1.96145 5.33334 1.60413 5.42327 1.28 5.59592L1.29375 5.58925C0.905717 5.7934 0.578935 6.10922 0.350318 6.50105C0.121701 6.89287 0.000359185 7.34508 0 7.80659L0 24.0359C0.000661755 24.6927 0.245566 25.3224 0.680975 25.7869C1.11639 26.2513 1.70674 26.5125 2.3225 26.5133H27.6763C28.292 26.5125 28.8824 26.2513 29.3178 25.7869C29.7532 25.3224 29.9981 24.6927 29.9988 24.0359V7.80659C29.9988 6.83725 29.475 5.99725 28.7125 5.59325L28.6987 5.58659H28.7062Z" fill="#C8C8C8"/>
</g>
<defs>
<clipPath id="clip0_16_153">
<rect width="30" height="32" fill="white"/>
</clipPath>
</defs>
</svg>
