<svg width="42" height="42" viewBox="0 0 42 42" fill="none" xmlns="http://www.w3.org/2000/svg">
<path d="M35.4375 15.75C35.4389 13.317 34.8255 10.923 33.6541 8.79054C32.4827 6.65804 30.7914 4.85616 28.7372 3.55226C26.6831 2.24836 24.3327 1.48474 21.9045 1.33232C19.4762 1.1799 17.0488 1.64362 14.8477 2.68042C12.6466 3.71722 10.7433 5.29347 9.31442 7.26275C7.88557 9.23203 6.97757 11.5305 6.67476 13.9446C6.37195 16.3587 6.68415 18.8102 7.58237 21.0714C8.48058 23.3326 9.93568 25.3301 11.8125 26.8784V39.375C11.8123 39.5989 11.8694 39.819 11.9783 40.0146C12.0873 40.2101 12.2444 40.3746 12.4348 40.4923C12.6251 40.61 12.8425 40.6771 13.0661 40.6871C13.2897 40.6972 13.5122 40.6499 13.7123 40.5497L21 36.9141L28.2893 40.5579C28.4721 40.6452 28.6724 40.6895 28.875 40.6875C29.2231 40.6875 29.5569 40.5493 29.8031 40.3031C30.0492 40.057 30.1875 39.7231 30.1875 39.375V26.8784C31.8297 25.5259 33.152 23.8267 34.0597 21.9026C34.9674 19.9786 35.438 17.8774 35.4375 15.75ZM9.1875 15.75C9.1875 13.4137 9.88029 11.1299 11.1783 9.18736C12.4762 7.2448 14.3211 5.73076 16.4796 4.8367C18.638 3.94264 21.0131 3.70871 23.3045 4.1645C25.5959 4.62029 27.7007 5.74532 29.3527 7.39733C31.0047 9.04934 32.1297 11.1541 32.5855 13.4455C33.0413 15.7369 32.8074 18.112 31.9133 20.2705C31.0193 22.4289 29.5052 24.2738 27.5627 25.5718C25.6201 26.8697 23.3363 27.5625 21 27.5625C17.8682 27.5591 14.8657 26.3134 12.6511 24.0989C10.4366 21.8844 9.19098 18.8818 9.1875 15.75ZM11.8125 15.75C11.8125 13.9329 12.3513 12.1566 13.3609 10.6457C14.3704 9.13485 15.8053 7.95727 17.4841 7.26189C19.1629 6.56651 21.0102 6.38456 22.7924 6.73906C24.5746 7.09357 26.2116 7.96859 27.4965 9.25349C28.7814 10.5384 29.6565 12.1754 30.011 13.9576C30.3655 15.7398 30.1835 17.5871 29.4881 19.2659C28.7928 20.9447 27.6152 22.3796 26.1043 23.3892C24.5934 24.3987 22.8171 24.9375 21 24.9375C18.5641 24.9349 16.2288 23.9661 14.5063 22.2437C12.7839 20.5213 11.8151 18.1859 11.8125 15.75Z" fill="white"/>
</svg>
