<svg width="52" height="52" viewBox="0 0 52 52" fill="none" xmlns="http://www.w3.org/2000/svg">
<g clip-path="url(#clip0_19_28)">
<path d="M49.6643 15.2252L49.4412 14.7268L49.075 15.1342C48.191 16.1395 47.0643 16.9108 45.8142 17.3788L45.4697 17.511L45.6127 17.8468C46.6907 20.4265 47.2431 23.1954 47.2377 25.9913C47.2377 37.7022 37.7108 47.2377 25.9913 47.2377C14.2718 47.2377 4.75367 37.7108 4.75367 26C4.75367 14.2892 14.2913 4.75365 26 4.75365C29.1785 4.75365 32.2465 5.44482 35.1 6.80549L35.4358 6.96799L35.5788 6.63215C36.1099 5.40359 36.9324 4.323 37.9752 3.48399L38.402 3.13949L37.9145 2.88599C34.2332 0.981183 30.147 -0.00804202 26.0022 0.00215321C11.661 0.00215321 0.00216675 11.661 0.00216675 26.0022C0.00216675 40.3433 11.661 52.0022 26.0022 52.0022C40.3433 52.0022 52.0022 40.3433 52.0022 26.0022C52.0022 22.2538 51.22 18.629 49.6665 15.2273L49.6643 15.2252ZM26 14.1483C22.8578 14.1518 19.8453 15.4015 17.6234 17.6234C15.4015 19.8453 14.1518 22.8578 14.1483 26C14.1518 29.1422 15.4015 32.1547 17.6234 34.3766C19.8453 36.5985 22.8578 37.8482 26 37.8517C29.1422 37.8482 32.1547 36.5985 34.3766 34.3766C36.5985 32.1547 37.8482 29.1422 37.8517 26C37.8459 22.8585 36.5954 19.8473 34.3741 17.6259C32.1527 15.4045 29.1415 14.154 26 14.1483ZM48.4142 9.79982C48.4142 10.5094 48.2744 11.2121 48.0028 11.8677C47.7313 12.5233 47.3333 13.119 46.8315 13.6208C46.3297 14.1226 45.734 14.5206 45.0784 14.7922C44.4228 15.0637 43.7201 15.2035 43.0105 15.2035C42.3009 15.2035 41.5982 15.0637 40.9426 14.7922C40.287 14.5206 39.6913 14.1226 39.1895 13.6208C38.6878 13.119 38.2897 12.5233 38.0182 11.8677C37.7466 11.2121 37.6068 10.5094 37.6068 9.79982C37.6068 8.36668 38.1761 6.99224 39.1895 5.97885C40.2029 4.96547 41.5774 4.39615 43.0105 4.39615C44.4436 4.39615 45.8181 4.96547 46.8315 5.97885C47.8449 6.99224 48.4142 8.36668 48.4142 9.79982Z" fill="white"/>
</g>
<defs>
<clipPath id="clip0_19_28">
<rect width="52" height="52" fill="white"/>
</clipPath>
</defs>
</svg>
