<svg width="52" height="52" viewBox="0 0 52 52" fill="none" xmlns="http://www.w3.org/2000/svg">
<path d="M13.3792 22.3882C10.7618 23.2722 9.14333 24.4899 9.14333 25.8397C9.14333 27.677 12.1528 29.2782 16.5967 30.108C14.9457 30.9444 13.9598 32.0039 13.9598 33.1587C13.9598 35.8519 19.3483 38.0359 25.9957 38.0359C27.6098 38.0391 29.2212 37.9035 30.8122 37.6307M16.5988 30.1102C18.9058 30.522 21.2451 30.7251 23.5885 30.7169C27.2892 30.7169 30.6627 30.2489 33.2193 29.4754M35.6243 21.9354C32.5672 22.8389 28.3032 23.4 23.5885 23.4C14.2827 23.4 6.73616 21.216 6.73616 18.5207C6.73616 16.4407 11.2363 14.664 17.5695 13.962" stroke="white" stroke-width="1.5" stroke-linecap="round" stroke-linejoin="round"/>
<path d="M47.6667 41.3184C47.6667 44.824 37.9665 47.6667 26 47.6667C14.0335 47.6667 4.33333 44.824 4.33333 41.3184C4.33333 38.8267 8.03183 36.6687 15.1667 35.6287M40.6467 19.0407C49.777 16.6704 51.0813 30.888 38.0358 35.6287M38.0423 4.33337C36.439 4.59987 33.4208 6.09921 34.19 9.95154C34.9613 13.8017 33.8693 15.8362 33.228 16.3714M28.4115 4.33337C26.806 4.65404 23.7878 6.45237 24.5592 11.0739C25.3305 15.6954 24.2385 16.9325 23.5972 17.5739" stroke="white" stroke-width="1.5" stroke-linecap="round" stroke-linejoin="round"/>
</svg>
