<svg width="52" height="52" viewBox="0 0 52 52" fill="none" xmlns="http://www.w3.org/2000/svg">
<path d="M3.25 3.25V48.75H48.75V3.25H3.25ZM28.0118 38.7351C28.0118 43.1632 25.4118 45.1847 21.6239 45.1847C18.2016 45.1847 16.2208 43.4184 15.2051 41.275L18.6891 39.1723C19.3603 40.3601 19.9696 41.366 21.4419 41.366C22.8426 41.366 23.7364 40.8167 23.7364 38.675V24.141H28.0118V38.7351ZM38.1258 45.1847C34.1542 45.1847 31.5851 43.2965 30.3355 40.8167L33.8195 38.8066C34.7344 40.3 35.932 41.4066 38.0348 41.4066C39.8011 41.4066 40.9403 40.5226 40.9403 39.2941C40.9403 37.8316 39.7816 37.3133 37.8219 36.4504L36.7559 35.9937C33.6684 34.684 31.6274 33.0281 31.6274 29.5441C31.6274 26.3347 34.0746 23.8973 37.8836 23.8973C40.6055 23.8973 42.5555 24.8414 43.9579 27.3195L40.6266 29.4531C39.8954 28.1434 39.1024 27.625 37.8739 27.625C36.6259 27.625 35.8329 28.418 35.8329 29.4531C35.8329 30.7336 36.6259 31.2504 38.4637 32.0531L39.5298 32.5098C43.1665 34.0633 45.2075 35.659 45.2075 39.2324C45.2075 43.0723 42.1801 45.1831 38.1274 45.1831L38.1258 45.1847Z" fill="white"/>
</svg>
