<svg width="42" height="41" viewBox="0 0 42 41" fill="none" xmlns="http://www.w3.org/2000/svg">
<path d="M32.9137 5.10242C33.8138 5.10242 34.6769 5.45995 35.3133 6.09637C35.9498 6.73279 36.3073 7.59596 36.3073 8.49599V32.251C36.3073 33.151 35.9498 34.0142 35.3133 34.6506C34.6769 35.287 33.8138 35.6446 32.9137 35.6446H9.15871C8.25868 35.6446 7.39551 35.287 6.75909 34.6506C6.12267 34.0142 5.76514 33.151 5.76514 32.251V8.49599C5.76514 7.59596 6.12267 6.73279 6.75909 6.09637C7.39551 5.45995 8.25868 5.10242 9.15871 5.10242H32.9137ZM32.0653 31.4026V22.4096C32.0653 20.9426 31.4826 19.5356 30.4452 18.4983C29.4078 17.4609 28.0009 16.8781 26.5338 16.8781C25.0915 16.8781 23.4117 17.7604 22.5973 19.0839V17.2005H17.8632V31.4026H22.5973V23.0375C22.5973 21.7309 23.6493 20.662 24.9558 20.662C25.5858 20.662 26.19 20.9122 26.6355 21.3577C27.081 21.8032 27.3313 22.4074 27.3313 23.0375V31.4026H32.0653ZM12.3487 14.5366C13.1047 14.5366 13.8298 14.2362 14.3644 13.7016C14.8989 13.167 15.1993 12.442 15.1993 11.686C15.1993 10.1079 13.9267 8.81838 12.3487 8.81838C11.5881 8.81838 10.8588 9.1205 10.321 9.65827C9.78322 10.196 9.4811 10.9254 9.4811 11.686C9.4811 13.264 10.7707 14.5366 12.3487 14.5366ZM14.7072 31.4026V17.2005H10.0071V31.4026H14.7072Z" fill="white"/>
</svg>
