<svg width="33" height="33" viewBox="0 0 33 33" fill="none" xmlns="http://www.w3.org/2000/svg">
<g clip-path="url(#clip0_87_34)">
<path d="M14.0924 2.26362C14.6268 2.18421 15.171 2.31764 15.608 2.63522C16.045 2.95281 16.34 3.42919 16.4295 3.96197C16.5191 4.49475 16.396 5.04138 16.0867 5.48435C15.7775 5.92733 15.3067 6.23128 14.7758 6.33087C12.3736 6.73825 10.1932 7.983 8.6212 9.84447C7.04916 11.7059 6.18699 14.0639 6.1875 16.5004C6.1875 19.2354 7.27399 21.8584 9.20796 23.7924C11.1419 25.7264 13.765 26.8129 16.5 26.8129V30.9379C8.52638 30.9379 2.0625 24.4754 2.0625 16.5004C2.0625 9.426 7.18575 3.42412 14.0924 2.26362Z" fill="black"/>
<path d="M23.2265 5.90948C23.4074 5.7077 23.6262 5.54353 23.8706 5.42637C24.1149 5.30921 24.38 5.24135 24.6505 5.22666C24.9211 5.21198 25.192 5.25076 25.4475 5.34079C25.7031 5.43082 25.9385 5.57033 26.1401 5.75135C27.6512 7.1044 28.8596 8.7612 29.6863 10.6134C30.513 12.4656 30.9393 14.4714 30.9375 16.4997C30.9375 24.4747 24.4736 30.9372 16.5 30.9372V26.8122C18.5875 26.8123 20.6258 26.1788 22.3455 24.9956C24.0653 23.8123 25.3854 22.1351 26.1315 20.1855C26.8776 18.2359 27.0144 16.1058 26.524 14.0767C26.0335 12.0477 24.9388 10.2153 23.3846 8.82173C22.9775 8.45648 22.7321 7.94449 22.7025 7.39835C22.6728 6.85221 22.8613 6.31666 23.2265 5.90948Z" fill="url(#paint0_linear_87_34)"/>
</g>
<defs>
<linearGradient id="paint0_linear_87_34" x1="738.375" y1="397.099" x2="738.375" y2="2246.16" gradientUnits="userSpaceOnUse">
<stop stop-color="white" stop-opacity="0"/>
<stop offset="1" stop-opacity="0.55"/>
</linearGradient>
<clipPath id="clip0_87_34">
<rect width="33" height="33" fill="white"/>
</clipPath>
</defs>
</svg>
