<svg width="31" height="31" viewBox="0 0 31 31" fill="none" xmlns="http://www.w3.org/2000/svg">
<g clip-path="url(#clip0_20_432)">
<path d="M25.8334 22.6042C26.3309 22.6044 26.8093 22.7961 27.1694 23.1395C27.5295 23.4828 27.7437 23.9516 27.7677 24.4486C27.7916 24.9456 27.6234 25.4327 27.2979 25.8091C26.9724 26.1854 26.5146 26.4221 26.0194 26.4701L25.8334 26.4792H5.16669C4.66912 26.4789 4.19071 26.2873 3.8306 25.9439C3.4705 25.6005 3.2563 25.1318 3.23238 24.6348C3.20847 24.1378 3.37668 23.6506 3.70216 23.2743C4.02764 22.8979 4.48544 22.6612 4.98069 22.6132L5.16669 22.6042H25.8334ZM25.8334 13.5625C26.3472 13.5625 26.84 13.7666 27.2034 14.13C27.5667 14.4933 27.7709 14.9862 27.7709 15.5C27.7709 16.0139 27.5667 16.5067 27.2034 16.87C26.84 17.2334 26.3472 17.4375 25.8334 17.4375H5.16669C4.65283 17.4375 4.16002 17.2334 3.79667 16.87C3.43332 16.5067 3.22919 16.0139 3.22919 15.5C3.22919 14.9862 3.43332 14.4933 3.79667 14.13C4.16002 13.7666 4.65283 13.5625 5.16669 13.5625H25.8334ZM25.8334 4.52084C26.3472 4.52084 26.84 4.72497 27.2034 5.08832C27.5667 5.45168 27.7709 5.94449 27.7709 6.45834C27.7709 6.9722 27.5667 7.46501 27.2034 7.82836C26.84 8.19172 26.3472 8.39584 25.8334 8.39584H5.16669C4.65283 8.39584 4.16002 8.19172 3.79667 7.82836C3.43332 7.46501 3.22919 6.9722 3.22919 6.45834C3.22919 5.94449 3.43332 5.45168 3.79667 5.08832C4.16002 4.72497 4.65283 4.52084 5.16669 4.52084H25.8334Z" fill="white"/>
</g>
<defs>
<clipPath id="clip0_20_432">
<rect width="31" height="31" fill="white"/>
</clipPath>
</defs>
</svg>
