<svg width="52" height="52" viewBox="0 0 52 52" fill="none" xmlns="http://www.w3.org/2000/svg">
<path d="M26 21.905C28.2317 21.905 30.0517 23.725 30.0517 26C30.0517 28.1667 28.2317 30.0083 26 30.0083C23.7683 30.0083 21.9483 28.1667 21.9483 26C21.9483 23.725 23.7683 21.905 26 21.905ZM15.9683 43.3333C17.3333 44.1567 20.3233 42.9 23.7683 39.65C22.6417 38.3717 21.5367 36.985 20.4967 35.5333C18.7508 35.365 17.0151 35.1047 15.2967 34.7533C14.1917 39.39 14.6033 42.575 15.9683 43.3333ZM17.5067 30.8967L16.8783 29.7917C16.64 30.42 16.4017 31.0483 16.25 31.655C16.835 31.785 17.485 31.8933 18.1567 32.0017L17.5067 30.8967ZM31.6767 29.25L33.4317 26L31.6767 22.75C31.0267 21.6017 30.3333 20.5833 29.705 19.565C28.535 19.5 27.3 19.5 26 19.5C24.7 19.5 23.465 19.5 22.295 19.565C21.6667 20.5833 20.9733 21.6017 20.3233 22.75L18.5683 26L20.3233 29.25C20.9733 30.3983 21.6667 31.4167 22.295 32.435C23.465 32.5 24.7 32.5 26 32.5C27.3 32.5 28.535 32.5 29.705 32.435C30.3333 31.4167 31.0267 30.3983 31.6767 29.25ZM26 14.69C25.5883 15.1667 25.155 15.665 24.7217 16.25H27.2783C26.845 15.665 26.4117 15.1667 26 14.69ZM26 37.31C26.4117 36.8333 26.845 36.335 27.2783 35.75H24.7217C25.155 36.335 25.5883 36.8333 26 37.31ZM36.01 8.66666C34.6667 7.84332 31.6767 9.09999 28.2317 12.35C29.3583 13.6283 30.4633 15.015 31.5033 16.4667C33.28 16.64 35.035 16.9 36.7033 17.2467C37.8083 12.61 37.3967 9.42499 36.01 8.66666ZM34.4933 21.1033L35.1217 22.2083C35.36 21.58 35.5983 20.9517 35.75 20.345C35.165 20.215 34.515 20.1067 33.8433 19.9983L34.4933 21.1033ZM37.635 5.82832C40.82 7.64832 41.1667 12.4367 39.8233 18.0267C45.3267 19.6517 49.2917 22.3383 49.2917 26C49.2917 29.6617 45.3267 32.3483 39.8233 33.9733C41.1667 39.5633 40.82 44.3517 37.635 46.1717C34.4717 47.9917 30.16 45.9117 26 41.9467C21.84 45.9117 17.5283 47.9917 14.3433 46.1717C11.18 44.3517 10.8333 39.5633 12.1767 33.9733C6.67334 32.3483 2.70834 29.6617 2.70834 26C2.70834 22.3383 6.67334 19.6517 12.1767 18.0267C10.8333 12.4367 11.18 7.64832 14.3433 5.82832C17.5283 4.00832 21.84 6.08832 26 10.0533C30.16 6.08832 34.4717 4.00832 37.635 5.82832ZM37.0067 26C37.7433 27.625 38.3933 29.25 38.935 30.8967C43.485 29.5317 46.0417 27.5817 46.0417 26C46.0417 24.4183 43.485 22.4683 38.935 21.1033C38.3933 22.75 37.7433 24.375 37.0067 26ZM14.9933 26C14.2567 24.375 13.6067 22.75 13.065 21.1033C8.51501 22.4683 5.95834 24.4183 5.95834 26C5.95834 27.5817 8.51501 29.5317 13.065 30.8967C13.6067 29.25 14.2567 27.625 14.9933 26ZM34.4933 30.8967L33.8433 32.0017C34.515 31.8933 35.165 31.785 35.75 31.655C35.5983 31.0483 35.36 30.42 35.1217 29.7917L34.4933 30.8967ZM28.2317 39.65C31.6767 42.9 34.6667 44.1567 36.01 43.3333C37.3967 42.575 37.8083 39.39 36.7033 34.7533C35.035 35.1 33.28 35.36 31.5033 35.5333C30.4633 36.985 29.3583 38.3717 28.2317 39.65ZM17.5067 21.1033L18.1567 19.9983C17.485 20.1067 16.835 20.215 16.25 20.345C16.4017 20.9517 16.64 21.58 16.8783 22.2083L17.5067 21.1033ZM23.7683 12.35C20.3233 9.09999 17.3333 7.84332 15.9683 8.66666C14.6033 9.42499 14.1917 12.61 15.2967 17.2467C17.0151 16.8953 18.7508 16.635 20.4967 16.4667C21.5367 15.015 22.6417 13.6283 23.7683 12.35Z" fill="white"/>
</svg>
