<svg width="52" height="52" viewBox="0 0 52 52" fill="none" xmlns="http://www.w3.org/2000/svg">
<path opacity="0.2" d="M42.25 17.875H30.875V6.5L42.25 17.875Z" fill="white"/>
<path d="M43.3997 16.7253L32.0247 5.35031C31.8737 5.19946 31.6944 5.07983 31.4971 4.99828C31.2999 4.91672 31.0885 4.87483 30.875 4.875H11.375C10.513 4.875 9.6864 5.21741 9.0769 5.8269C8.46741 6.4364 8.125 7.26305 8.125 8.125V22.75C8.125 23.181 8.29621 23.5943 8.60095 23.899C8.9057 24.2038 9.31902 24.375 9.75 24.375C10.181 24.375 10.5943 24.2038 10.899 23.899C11.2038 23.5943 11.375 23.181 11.375 22.75V8.125H29.25V17.875C29.25 18.306 29.4212 18.7193 29.726 19.024C30.0307 19.3288 30.444 19.5 30.875 19.5H40.625V43.875H35.75C35.319 43.875 34.9057 44.0462 34.601 44.351C34.2962 44.6557 34.125 45.069 34.125 45.5C34.125 45.931 34.2962 46.3443 34.601 46.649C34.9057 46.9538 35.319 47.125 35.75 47.125H40.625C41.487 47.125 42.3136 46.7826 42.9231 46.1731C43.5326 45.5636 43.875 44.737 43.875 43.875V17.875C43.8752 17.6615 43.8333 17.4501 43.7517 17.2529C43.6702 17.0556 43.5505 16.8763 43.3997 16.7253ZM32.5 10.4223L38.3277 16.25H32.5V10.4223ZM30.0239 39.8755C29.9606 40.497 29.7603 41.0968 29.4376 41.6317C29.1148 42.1666 28.6775 42.6233 28.1572 42.9691C27.103 43.6719 25.7969 43.875 24.6045 43.875C23.5671 43.8688 22.5346 43.7323 21.5312 43.4688C21.3233 43.4136 21.1284 43.3177 20.9578 43.1866C20.7872 43.0555 20.6443 42.8918 20.5375 42.7051C20.4306 42.5183 20.3619 42.3122 20.3354 42.0987C20.3088 41.8852 20.3249 41.6686 20.3827 41.4613C20.4406 41.2541 20.539 41.0604 20.6722 40.8915C20.8055 40.7226 20.971 40.5819 21.1591 40.4774C21.3472 40.373 21.5541 40.3069 21.768 40.2831C21.9818 40.2593 22.1982 40.2781 22.4047 40.3386C23.2944 40.5823 25.4516 40.887 26.3758 40.2655C26.5545 40.1456 26.7475 39.9567 26.8105 39.4672C26.8816 38.9248 26.6662 38.6344 24.2145 37.9255C22.3153 37.377 19.1364 36.4569 19.5427 33.2313C19.606 32.622 19.8026 32.0341 20.1186 31.5093C20.4345 30.9845 20.862 30.5357 21.3708 30.1945C23.7758 28.5695 27.6087 29.5222 28.0394 29.6339C28.4563 29.7435 28.8127 30.0143 29.03 30.3867C29.2473 30.759 29.3078 31.2025 29.1982 31.6195C29.0886 32.0364 28.8178 32.3928 28.4454 32.6101C28.0731 32.8274 27.6296 32.8879 27.2127 32.7783C26.3006 32.5406 24.1191 32.2583 23.1847 32.892C23.0622 32.9747 22.9614 33.0855 22.8907 33.2152C22.82 33.345 22.7815 33.4898 22.7784 33.6375C22.7541 33.8203 22.75 33.8589 23.0039 34.0234C23.4731 34.3261 24.3141 34.5678 25.1266 34.8034C27.1152 35.3783 30.4789 36.3594 30.0239 39.8755ZM17.875 30.875C17.875 31.306 17.7038 31.7193 17.399 32.024C17.0943 32.3288 16.681 32.5 16.25 32.5H13.8125V42.25C13.8125 42.681 13.6413 43.0943 13.3365 43.399C13.0318 43.7038 12.6185 43.875 12.1875 43.875C11.7565 43.875 11.3432 43.7038 11.0385 43.399C10.7337 43.0943 10.5625 42.681 10.5625 42.25V32.5H8.125C7.69402 32.5 7.2807 32.3288 6.97595 32.024C6.67121 31.7193 6.5 31.306 6.5 30.875C6.5 30.444 6.67121 30.0307 6.97595 29.726C7.2807 29.4212 7.69402 29.25 8.125 29.25H16.25C16.681 29.25 17.0943 29.4212 17.399 29.726C17.7038 30.0307 17.875 30.444 17.875 30.875Z" fill="white"/>
</svg>
